<svg version="1.1" id="Layer_1" xmlns="http://www.w3.org/2000/svg" xmlns:xlink="http://www.w3.org/1999/xlink" x="0px" y="0px"
	 width="100%" viewBox="0 0 256 256" enable-background="new 0 0 256 256" xml:space="preserve">
<path fill="#010101" opacity="1.000000" stroke="none" 
	d="
M119.000000,1.000001 
	C125.354393,1.000000 131.708786,1.000000 138.702469,1.342989 
	C167.954727,7.621250 185.310074,25.209238 193.000000,53.178394 
	C193.000000,35.785599 193.000000,18.392799 193.000000,1.000000 
	C198.022095,1.000000 203.044189,1.000000 208.534393,1.468656 
	C209.002792,35.744850 209.044037,69.552513 208.936478,103.359711 
	C208.926331,106.548195 209.751892,108.400085 212.671356,110.050652 
	C221.958633,115.301338 228.553299,123.183296 232.711533,132.935638 
	C241.163986,152.759201 242.257202,173.744156 240.440933,194.716492 
	C238.853439,213.047241 230.090637,227.164917 211.484177,233.448807 
	C210.331451,233.838089 209.171478,236.090469 209.115448,237.519196 
	C208.861069,244.004333 209.001587,250.504944 209.000000,257.000000 
	C203.977905,257.000000 198.955811,257.000000 193.466537,256.531403 
	C192.999359,249.153336 192.999359,242.243866 192.999359,236.222565 
	C181.274979,233.854492 170.500320,231.855484 159.810165,229.476761 
	C144.475220,226.064499 129.126740,223.248398 113.391136,226.371994 
	C97.457100,229.534958 81.549385,232.830460 65.000000,236.196045 
	C65.000000,242.775711 65.000000,249.887863 65.000000,257.000000 
	C59.977909,257.000000 54.955814,257.000000 49.465614,256.531372 
	C48.997150,250.067657 48.874828,244.068970 49.051590,238.079117 
	C49.131351,235.376099 48.439159,233.904678 45.659019,232.993011 
	C30.868229,228.142731 22.079704,217.552673 19.022161,202.664276 
	C14.613104,181.194794 16.572701,159.917099 23.655125,139.262283 
	C27.525146,127.975929 34.396164,118.547531 44.959511,112.457474 
	C48.168121,110.607620 49.090706,108.484207 49.077045,104.914650 
	C48.944500,70.276840 48.998920,35.638317 49.000000,1.000000 
	C54.022091,1.000000 59.044186,1.000000 64.532402,1.468657 
	C64.998413,10.582557 64.998260,19.227800 64.998207,27.873043 
	C64.998154,36.285133 64.998192,44.697224 64.998192,53.109314 
	C66.119522,52.371414 66.384651,51.611828 66.585350,50.835579 
	C73.331001,24.745016 89.940903,8.699867 116.002075,2.245955 
	C117.040543,1.988784 118.002434,1.422343 119.000000,1.000001 
M201.895065,122.399384 
	C197.018936,121.546417 192.086441,119.757660 187.279160,120.047318 
	C178.870026,120.553986 170.414383,121.802238 162.199066,123.697235 
	C145.076889,127.646736 128.082352,131.052689 110.419113,127.037193 
	C100.380829,124.755135 90.205719,122.963249 80.014267,121.489754 
	C58.453182,118.372421 43.261723,128.195328 37.155762,149.046021 
	C33.037632,163.108658 32.133209,177.600876 33.298286,192.086731 
	C34.880116,211.754242 46.115665,221.039047 65.726929,219.050873 
	C74.455803,218.165939 83.158768,216.443954 91.696861,214.373489 
	C112.982460,209.211823 134.213425,207.102722 155.891602,212.183075 
	C168.327835,215.097534 180.934204,217.504074 193.589050,219.213425 
	C209.865051,221.411880 221.712021,212.298615 224.007706,196.080551 
	C226.389496,179.254181 225.139740,162.504303 220.531494,146.139572 
	C217.697769,136.076523 212.590576,127.452316 201.895065,122.399384 
M83.732277,80.639328 
	C92.294479,104.196045 115.913628,117.263466 139.927231,111.729500 
	C163.024078,106.406799 179.374313,83.671059 176.824387,60.422298 
	C174.126999,35.829155 153.680054,17.083164 129.362381,17.008305 
	C96.633720,16.907551 73.169823,48.854816 83.732277,80.639328 
M64.991661,78.414429 
	C64.991661,87.348312 64.991661,96.282204 64.991661,104.983475 
	C69.658707,104.983475 73.706879,104.983475 76.912643,104.983475 
	C73.268166,95.686493 69.677414,86.522354 66.041428,77.376198 
	C66.024185,77.332825 65.364769,77.544739 64.991661,78.414429 
M180.973511,102.427895 
	C181.111206,102.924194 181.239746,103.850746 181.387955,103.853905 
	C185.141998,103.933777 188.898117,103.916786 192.802261,103.916786 
	C192.802261,94.469299 192.802261,85.651413 192.802261,78.177353 
	C189.304626,85.394539 185.328140,93.599800 180.973511,102.427895 
z"/>
<path fill="#169044" opacity="1.000000" stroke="none" 
	d="
M48.531342,1.000000 
	C48.998920,35.638317 48.944500,70.276840 49.077045,104.914650 
	C49.090706,108.484207 48.168121,110.607620 44.959511,112.457474 
	C34.396164,118.547531 27.525146,127.975929 23.655125,139.262283 
	C16.572701,159.917099 14.613104,181.194794 19.022161,202.664276 
	C22.079704,217.552673 30.868229,228.142731 45.659019,232.993011 
	C48.439159,233.904678 49.131351,235.376099 49.051590,238.079117 
	C48.874828,244.068970 48.997150,250.067657 48.998756,256.531372 
	C33.019905,257.000000 17.039806,257.000000 1.060159,257.000000 
	C1.060609,171.666641 1.060609,86.333313 1.060609,1.000000 
	C16.768373,1.000000 32.415527,1.000000 48.531342,1.000000 
z"/>
<path fill="#169044" opacity="1.000000" stroke="none" 
	d="
M209.468658,257.000000 
	C209.001587,250.504944 208.861069,244.004333 209.115448,237.519196 
	C209.171478,236.090469 210.331451,233.838089 211.484177,233.448807 
	C230.090637,227.164917 238.853439,213.047241 240.440933,194.716492 
	C242.257202,173.744156 241.163986,152.759201 232.711533,132.935638 
	C228.553299,123.183296 221.958633,115.301338 212.671356,110.050652 
	C209.751892,108.400085 208.926331,106.548195 208.936478,103.359711 
	C209.044037,69.552513 209.002792,35.744850 209.001251,1.468656 
	C224.980087,1.000000 240.960190,1.000000 256.939819,1.000007 
	C256.939392,86.333351 256.939392,171.666687 256.939392,257.000000 
	C241.231628,257.000000 225.584473,257.000000 209.468658,257.000000 
z"/>
<path fill="#0071BB" opacity="1.000000" stroke="none" 
	d="
M65.468658,257.000000 
	C65.000000,249.887863 65.000000,242.775711 65.000000,236.196045 
	C81.549385,232.830460 97.457100,229.534958 113.391136,226.371994 
	C129.126740,223.248398 144.475220,226.064499 159.810165,229.476761 
	C170.500320,231.855484 181.274979,233.854492 192.999359,236.222565 
	C192.999359,242.243866 192.999359,249.153336 192.999680,256.531403 
	C150.645767,257.000000 108.291542,257.000000 65.468658,257.000000 
z"/>
<path fill="#0070BA" opacity="1.000000" stroke="none" 
	d="
M118.531342,1.000001 
	C118.002434,1.422343 117.040543,1.988784 116.002075,2.245955 
	C89.940903,8.699867 73.331001,24.745016 66.585350,50.835579 
	C66.384651,51.611828 66.119522,52.371414 64.998192,53.109314 
	C64.998192,44.697224 64.998154,36.285133 64.998207,27.873043 
	C64.998260,19.227800 64.998413,10.582557 64.999268,1.468657 
	C82.687561,1.000000 100.375122,1.000000 118.531342,1.000001 
z"/>
<path fill="#0070BA" opacity="1.000000" stroke="none" 
	d="
M192.531342,1.000000 
	C193.000000,18.392799 193.000000,35.785599 193.000000,53.178394 
	C185.310074,25.209238 167.954727,7.621250 139.170868,1.342989 
	C156.687561,1.000000 174.375122,1.000000 192.531342,1.000000 
z"/>
<path fill="#E91C23" opacity="1.000000" stroke="none" 
	d="
M202.231598,122.581726 
	C212.590576,127.452316 217.697769,136.076523 220.531494,146.139572 
	C225.139740,162.504303 226.389496,179.254181 224.007706,196.080551 
	C221.712021,212.298615 209.865051,221.411880 193.589050,219.213425 
	C180.934204,217.504074 168.327835,215.097534 155.891602,212.183075 
	C134.213425,207.102722 112.982460,209.211823 91.696861,214.373489 
	C83.158768,216.443954 74.455803,218.165939 65.726929,219.050873 
	C46.115665,221.039047 34.880116,211.754242 33.298286,192.086731 
	C32.133209,177.600876 33.037632,163.108658 37.155762,149.046021 
	C43.261723,128.195328 58.453182,118.372421 80.014267,121.489754 
	C90.205719,122.963249 100.380829,124.755135 110.419113,127.037193 
	C128.082352,131.052689 145.076889,127.646736 162.199066,123.697235 
	C170.414383,121.802238 178.870026,120.553986 187.279160,120.047318 
	C192.086441,119.757660 197.018936,121.546417 202.231598,122.581726 
M202.085876,143.551208 
	C199.022903,138.016449 194.176041,135.395340 188.029373,135.937210 
	C181.432098,136.518814 174.742645,137.155746 168.352448,138.784683 
	C146.660126,144.314270 125.000648,147.377029 102.740631,141.988113 
	C93.555130,139.764404 84.150055,138.169998 74.750969,137.186050 
	C65.762222,136.245056 58.141975,139.393433 54.606373,148.501373 
	C48.686199,163.752136 47.691254,179.582626 50.205643,195.629196 
	C50.958393,200.433167 54.156998,203.558365 59.255032,203.142792 
	C66.349388,202.564499 73.611137,202.200790 80.426750,200.359238 
	C110.416893,192.256042 140.306549,190.515427 170.605240,198.882248 
	C179.487427,201.335007 188.868011,202.366287 198.094330,203.053757 
	C204.171600,203.506561 207.112823,200.701187 207.908340,194.629532 
	C210.162170,177.427429 209.371490,160.454498 202.085876,143.551208 
z"/>
<path fill="#FDFD00" opacity="1.000000" stroke="none" 
	d="
M83.571007,80.276077 
	C73.169823,48.854816 96.633720,16.907551 129.362381,17.008305 
	C153.680054,17.083164 174.126999,35.829155 176.824387,60.422298 
	C179.374313,83.671059 163.024078,106.406799 139.927231,111.729500 
	C115.913628,117.263466 92.294479,104.196045 83.571007,80.276077 
M152.021835,72.210548 
	C154.948410,61.262878 151.374313,50.999249 142.545319,44.997139 
	C134.102737,39.257717 122.768082,39.532955 114.543839,45.677078 
	C106.149933,51.947945 102.792412,62.771065 106.118469,72.836624 
	C109.065674,81.755653 117.851143,88.581345 126.920822,88.998589 
	C138.738693,89.542267 146.752319,84.398636 152.021835,72.210548 
z"/>
<path fill="#006EB7" opacity="1.000000" stroke="none" 
	d="
M64.998459,78.025932 
	C65.364769,77.544739 66.024185,77.332825 66.041428,77.376198 
	C69.677414,86.522354 73.268166,95.686493 76.912643,104.983475 
	C73.706879,104.983475 69.658707,104.983475 64.991661,104.983475 
	C64.991661,96.282204 64.991661,87.348312 64.998459,78.025932 
z"/>
<path fill="#006DB5" opacity="1.000000" stroke="none" 
	d="
M181.162598,102.116478 
	C185.328140,93.599800 189.304626,85.394539 192.802261,78.177353 
	C192.802261,85.651413 192.802261,94.469299 192.802261,103.916786 
	C188.898117,103.916786 185.141998,103.933777 181.387955,103.853905 
	C181.239746,103.850746 181.111206,102.924194 181.162598,102.116478 
z"/>
<path fill="#010000" opacity="1.000000" stroke="none" 
	d="
M202.267487,143.874725 
	C209.371490,160.454498 210.162170,177.427429 207.908340,194.629532 
	C207.112823,200.701187 204.171600,203.506561 198.094330,203.053757 
	C188.868011,202.366287 179.487427,201.335007 170.605240,198.882248 
	C140.306549,190.515427 110.416893,192.256042 80.426750,200.359238 
	C73.611137,202.200790 66.349388,202.564499 59.255032,203.142792 
	C54.156998,203.558365 50.958393,200.433167 50.205643,195.629196 
	C47.691254,179.582626 48.686199,163.752136 54.606373,148.501373 
	C58.141975,139.393433 65.762222,136.245056 74.750969,137.186050 
	C84.150055,138.169998 93.555130,139.764404 102.740631,141.988113 
	C125.000648,147.377029 146.660126,144.314270 168.352448,138.784683 
	C174.742645,137.155746 181.432098,136.518814 188.029373,135.937210 
	C194.176041,135.395340 199.022903,138.016449 202.267487,143.874725 
M104.499817,177.558594 
	C128.597809,177.558594 152.695801,177.558594 176.717621,177.558594 
	C176.717621,171.572830 176.717621,166.164078 176.717621,160.726730 
	C144.674927,160.726730 112.942139,160.726730 81.282211,160.726730 
	C81.282211,166.426834 81.282211,171.835632 81.282211,177.558563 
	C88.891197,177.558563 96.195518,177.558563 104.499817,177.558594 
z"/>
<path fill="#030300" opacity="1.000000" stroke="none" 
	d="
M151.933807,72.605392 
	C146.752319,84.398636 138.738693,89.542267 126.920822,88.998589 
	C117.851143,88.581345 109.065674,81.755653 106.118469,72.836624 
	C102.792412,62.771065 106.149933,51.947945 114.543839,45.677078 
	C122.768082,39.532955 134.102737,39.257717 142.545319,44.997139 
	C151.374313,50.999249 154.948410,61.262878 151.933807,72.605392 
z"/>
<path fill="#F1F1F1" opacity="1.000000" stroke="none" 
	d="
M103.999825,177.558578 
	C96.195518,177.558563 88.891197,177.558563 81.282211,177.558563 
	C81.282211,171.835632 81.282211,166.426834 81.282211,160.726730 
	C112.942139,160.726730 144.674927,160.726730 176.717621,160.726730 
	C176.717621,166.164078 176.717621,171.572830 176.717621,177.558594 
	C152.695801,177.558594 128.597809,177.558594 103.999825,177.558578 
z"/>
</svg>